<?xml version="1.0" encoding="UTF-8"?>
<!DOCTYPE svg PUBLIC "-//W3C//DTD SVG 1.1//EN" "http://www.w3.org/Graphics/SVG/1.1/DTD/svg11.dtd">
<svg xmlns="http://www.w3.org/2000/svg" version="1.1" width="199px" height="48px" style="shape-rendering:geometricPrecision; text-rendering:geometricPrecision; image-rendering:optimizeQuality; fill-rule:evenodd; clip-rule:evenodd" xmlns:xlink="http://www.w3.org/1999/xlink">
<g><path style="opacity:1" fill="#705895" d="M 26.5,2.5 C 27.791,2.26269 28.791,2.59603 29.5,3.5C 28.5084,3.32842 27.8417,3.66175 27.5,4.5C 26.8333,4.5 26.5,4.83333 26.5,5.5C 25.596,6.20895 25.2627,7.20895 25.5,8.5C 25.1667,8.5 24.8333,8.5 24.5,8.5C 22.9844,5.91959 23.6511,3.91959 26.5,2.5 Z"/></g>
<g><path style="opacity:1" fill="#726ba3" d="M 26.5,2.5 C 31.7028,0.855455 34.2028,2.85546 34,8.5C 33.6174,9.05596 33.1174,9.38929 32.5,9.5C 32.9689,6.6067 31.9689,4.6067 29.5,3.5C 28.791,2.59603 27.791,2.26269 26.5,2.5 Z"/></g>
<g><path style="opacity:0.698" fill="#7787ad" d="M 84.5,5.5 C 81.0977,5.34243 77.7644,5.67577 74.5,6.5C 74.6107,5.88258 74.944,5.38258 75.5,5C 78.6965,4.19549 81.6965,4.36216 84.5,5.5 Z"/></g>
<g><path style="opacity:0.671" fill="#727ea2" d="M 128.5,5.5 C 128.5,5.16667 128.5,4.83333 128.5,4.5C 132.833,4.5 137.167,4.5 141.5,4.5C 141.737,5.79105 141.404,6.79105 140.5,7.5C 136.971,5.57723 132.971,4.91057 128.5,5.5 Z"/></g>
<g><path style="opacity:1" fill="#4b3194" d="M 26.5,5.5 C 26.5,4.83333 26.8333,4.5 27.5,4.5C 31.469,5.41244 32.1357,7.0791 29.5,9.5C 29.2624,7.59565 28.2624,6.26231 26.5,5.5 Z"/></g>
<g><path style="opacity:1" fill="#34367c" d="M 84.5,5.5 C 84.7373,6.79105 84.404,7.79105 83.5,8.5C 81.5,8.5 79.5,8.5 77.5,8.5C 75.334,11.0401 74.334,10.3734 74.5,6.5C 77.7644,5.67577 81.0977,5.34243 84.5,5.5 Z"/></g>
<g><path style="opacity:1" fill="#03115d" d="M 122.5,5.5 C 119.5,6.16667 116.5,6.83333 113.5,7.5C 113.5,7.83333 113.5,8.16667 113.5,8.5C 112.833,8.16667 112.167,7.83333 111.5,7.5C 114.684,5.58635 118.351,4.91969 122.5,5.5 Z"/></g>
<g><path style="opacity:1" fill="#4e568e" d="M 175.5,5.5 C 173.517,5.15684 172.183,5.82351 171.5,7.5C 170.209,7.26269 169.209,7.59603 168.5,8.5C 168.5,9.16667 168.5,9.83333 168.5,10.5C 165.956,7.69346 164.956,8.36012 165.5,12.5C 162.777,9.8215 163.111,7.3215 166.5,5C 169.696,4.19549 172.696,4.36216 175.5,5.5 Z"/></g>
<g><path style="opacity:1" fill="#0e1b6a" d="M 175.5,5.5 C 174.817,7.17649 173.483,7.84316 171.5,7.5C 172.183,5.82351 173.517,5.15684 175.5,5.5 Z"/></g>
<g><path style="opacity:0.984" fill="#979dbf" d="M 84.5,5.5 C 86.879,6.56188 86.879,7.89521 84.5,9.5C 83.8933,9.37642 83.56,9.04309 83.5,8.5C 84.404,7.79105 84.7373,6.79105 84.5,5.5 Z"/></g>
<g><path style="opacity:0.945" fill="#737da9" d="M 93.5,11.5 C 92.6909,9.70779 92.1909,7.70779 92,5.5C 91.51,6.79323 91.3433,8.12656 91.5,9.5C 90.5166,13.2984 90.1832,17.2984 90.5,21.5C 89.5111,16.0247 89.1778,10.358 89.5,4.5C 90.8333,4.5 92.1667,4.5 93.5,4.5C 93.5,6.83333 93.5,9.16667 93.5,11.5 Z"/></g>
<g><path style="opacity:0.886" fill="#6d6fa2" d="M 122.5,5.5 C 122.833,5.5 123.167,5.5 123.5,5.5C 123.5,6.5 123.5,7.5 123.5,8.5C 120.391,8.73586 117.391,8.40252 114.5,7.5C 114.167,7.5 113.833,7.5 113.5,7.5C 116.5,6.83333 119.5,6.16667 122.5,5.5 Z"/></g>
<g><path style="opacity:0.553" fill="#6d7aa9" d="M 156.5,5.5 C 155.833,5.5 155.167,5.5 154.5,5.5C 151.833,5.5 149.167,5.5 146.5,5.5C 146.5,10.5 146.5,15.5 146.5,20.5C 146.5,20.8333 146.5,21.1667 146.5,21.5C 146.167,21.5 145.833,21.5 145.5,21.5C 145.5,15.8333 145.5,10.1667 145.5,4.5C 149.371,4.18503 153.038,4.51836 156.5,5.5 Z"/></g>
<g><path style="opacity:1" fill="#04145a" d="M 154.5,5.5 C 152.167,6.16667 149.833,6.83333 147.5,7.5C 147.818,12.0323 147.485,16.3656 146.5,20.5C 146.5,15.5 146.5,10.5 146.5,5.5C 149.167,5.5 151.833,5.5 154.5,5.5 Z"/></g>
<g><path style="opacity:1" fill="#3a407f" d="M 154.5,5.5 C 155.167,5.5 155.833,5.5 156.5,5.5C 156.833,5.5 157.167,5.5 157.5,5.5C 158.299,8.42994 158.632,11.4299 158.5,14.5C 158.5,15.1667 158.167,15.5 157.5,15.5C 157.158,14.6618 156.492,14.3284 155.5,14.5C 155.5,14.1667 155.5,13.8333 155.5,13.5C 156.649,13.2089 157.316,12.3756 157.5,11C 157.316,9.62439 156.649,8.79106 155.5,8.5C 153.379,8.67474 151.379,8.34141 149.5,7.5C 149.167,7.5 148.833,7.5 148.5,7.5C 148.167,7.5 147.833,7.5 147.5,7.5C 149.833,6.83333 152.167,6.16667 154.5,5.5 Z"/></g>
<g><path style="opacity:1" fill="#8e77a1" d="M 19.5,5.5 C 20.9953,5.41483 21.9953,6.08149 22.5,7.5C 21.6798,9.11118 20.3464,9.77784 18.5,9.5C 18.4326,8.04125 18.7659,6.70792 19.5,5.5 Z"/></g>
<g><path style="opacity:1" fill="#592b96" d="M 26.5,5.5 C 28.2624,6.26231 29.2624,7.59565 29.5,9.5C 28.1667,9.5 26.8333,9.5 25.5,9.5C 25.5,9.16667 25.5,8.83333 25.5,8.5C 25.2627,7.20895 25.596,6.20895 26.5,5.5 Z"/></g>
<g><path style="opacity:1" fill="#46348b" d="M 27.5,4.5 C 27.8417,3.66175 28.5084,3.32842 29.5,3.5C 31.9689,4.6067 32.9689,6.6067 32.5,9.5C 32.5,10.1667 32.1667,10.5 31.5,10.5C 29.2646,10.7947 27.2646,10.4614 25.5,9.5C 26.8333,9.5 28.1667,9.5 29.5,9.5C 32.1357,7.0791 31.469,5.41244 27.5,4.5 Z"/></g>
<g><path style="opacity:0.948" fill="#656f98" d="M 105.5,5.5 C 103.692,6.91791 103.025,8.91791 103.5,11.5C 103.167,11.5 102.833,11.5 102.5,11.5C 101.631,9.28298 101.298,6.94965 101.5,4.5C 103.099,4.23219 104.432,4.56552 105.5,5.5 Z"/></g>
<g><path style="opacity:0.361" fill="#8d98bc" d="M 123.5,5.5 C 123.167,5.5 122.833,5.5 122.5,5.5C 118.351,4.91969 114.684,5.58635 111.5,7.5C 111.5,10.8333 111.5,14.1667 111.5,17.5C 111.5,18.8333 111.5,20.1667 111.5,21.5C 111.5,21.8333 111.5,22.1667 111.5,22.5C 110.51,16.69 110.177,10.69 110.5,4.5C 115.032,4.18178 119.366,4.51511 123.5,5.5 Z"/></g>
<g><path style="opacity:1" fill="#7d81a4" d="M 175.5,5.5 C 176.867,7.09275 176.534,8.42608 174.5,9.5C 172.591,8.65178 170.591,8.31845 168.5,8.5C 169.209,7.59603 170.209,7.26269 171.5,7.5C 173.483,7.84316 174.817,7.17649 175.5,5.5 Z"/></g>
<g><path style="opacity:0.529" fill="#a4a5c5" d="M 39.5,6.5 C 40.404,7.20895 40.7373,8.20895 40.5,9.5C 39.1667,9.5 37.8333,9.5 36.5,9.5C 36.5,8.16667 36.5,6.83333 36.5,5.5C 37.791,5.26269 38.791,5.59603 39.5,6.5 Z"/></g>
<g><path style="opacity:1" fill="#312d65" d="M 39.5,6.5 C 39.3605,8.33702 38.6939,8.67036 37.5,7.5C 37.9569,6.70245 38.6236,6.36912 39.5,6.5 Z"/></g>
<g><path style="opacity:1" fill="#061962" d="M 111.5,7.5 C 112.167,7.83333 112.833,8.16667 113.5,8.5C 113.5,9.83333 113.5,11.1667 113.5,12.5C 113.5,13.1667 113.5,13.8333 113.5,14.5C 113.5,15.5 113.5,16.5 113.5,17.5C 112.833,17.5 112.167,17.5 111.5,17.5C 111.5,14.1667 111.5,10.8333 111.5,7.5 Z"/></g>
<g><path style="opacity:0.031" fill="#defffe" d="M 115.5,9.5 C 116.833,10.1667 116.833,10.1667 115.5,9.5 Z"/></g>
<g><path style="opacity:0.009" fill="#fefffe" d="M 133.5,10.5 C 134.251,9.42654 135.251,9.25988 136.5,10C 135.552,10.4828 134.552,10.6495 133.5,10.5 Z"/></g>
<g><path style="opacity:1" fill="#6a6ba6" d="M 157.5,5.5 C 159.387,6.76794 160.387,8.60127 160.5,11C 160.613,12.6991 159.947,13.8658 158.5,14.5C 158.632,11.4299 158.299,8.42994 157.5,5.5 Z"/></g>
<g><path style="opacity:0.808" fill="#a36c9d" d="M 17.5,11.5 C 15.5853,11.2155 13.9187,11.5489 12.5,12.5C 11.8333,12.5 11.1667,12.5 10.5,12.5C 11.3121,11.0069 12.6455,10.3402 14.5,10.5C 15.7261,10.5195 16.7261,10.8529 17.5,11.5 Z"/></g>
<g><path style="opacity:1" fill="#626c9e" d="M 74.5,6.5 C 74.334,10.3734 75.334,11.0401 77.5,8.5C 77.7822,9.77765 78.4489,10.7777 79.5,11.5C 78.1266,11.3433 76.7932,11.51 75.5,12C 76.056,12.3826 76.3893,12.8826 76.5,13.5C 76.1667,13.5 75.8333,13.5 75.5,13.5C 72.0709,11.4815 71.7376,9.14815 74.5,6.5 Z"/></g>
<g><path style="opacity:1" fill="#192568" d="M 128.5,5.5 C 132.971,4.91057 136.971,5.57723 140.5,7.5C 137.167,7.5 133.833,7.5 130.5,7.5C 130.5,8.83333 130.5,10.1667 130.5,11.5C 129.521,14.6248 129.187,17.9581 129.5,21.5C 128.512,16.3595 128.179,11.0262 128.5,5.5 Z"/></g>
<g><path style="opacity:0.282" fill="#a3b2de" d="M 148.5,7.5 C 148.833,7.5 149.167,7.5 149.5,7.5C 149.5,9.5 149.5,11.5 149.5,13.5C 151.5,13.5 153.5,13.5 155.5,13.5C 155.5,13.8333 155.5,14.1667 155.5,14.5C 155.167,14.5 154.833,14.5 154.5,14.5C 152.833,14.5 151.167,14.5 149.5,14.5C 148.532,12.3926 148.198,10.0593 148.5,7.5 Z"/></g>
<g><path style="opacity:0.486" fill="#6574a1" d="M 155.5,8.5 C 156.649,8.79106 157.316,9.62439 157.5,11C 157.316,12.3756 156.649,13.2089 155.5,13.5C 156.833,11.8333 156.833,10.1667 155.5,8.5 Z"/></g>
<g><path style="opacity:1" fill="#1b286d" d="M 168.5,10.5 C 168.5,10.8333 168.5,11.1667 168.5,11.5C 168.167,12.1667 167.833,12.8333 167.5,13.5C 167.167,13.5 166.833,13.5 166.5,13.5C 165.833,13.5 165.5,13.1667 165.5,12.5C 164.956,8.36012 165.956,7.69346 168.5,10.5 Z"/></g>
<g><path style="opacity:0.6" fill="#bda8cd" d="M 24.5,8.5 C 24.8333,8.5 25.1667,8.5 25.5,8.5C 25.5,8.83333 25.5,9.16667 25.5,9.5C 27.2646,10.4614 29.2646,10.7947 31.5,10.5C 29.7354,11.4614 27.7354,11.7947 25.5,11.5C 25.5,12.8333 25.5,14.1667 25.5,15.5C 24.1667,15.5 22.8333,15.5 21.5,15.5C 23.4546,13.6541 24.4546,11.3208 24.5,8.5 Z"/></g>
<g><path style="opacity:1" fill="#4d4f96" d="M 47.5,11.5 C 47.5,13.5 47.5,15.5 47.5,17.5C 47.5,18.1667 47.1667,18.5 46.5,18.5C 46.5,18.1667 46.5,17.8333 46.5,17.5C 46.5,16.5 46.5,15.5 46.5,14.5C 45.0821,12.6921 43.0821,12.0254 40.5,12.5C 40.8333,11.8333 41.1667,11.1667 41.5,10.5C 42.0968,9.86137 42.9302,9.52804 44,9.5C 45.6991,9.38655 46.8658,10.0532 47.5,11.5 Z"/></g>
<g><path style="opacity:1" fill="#101f6d" d="M 79.5,11.5 C 79.1788,13.0481 78.1788,13.7148 76.5,13.5C 76.3893,12.8826 76.056,12.3826 75.5,12C 76.7932,11.51 78.1266,11.3433 79.5,11.5 Z"/></g>
<g><path style="opacity:0.439" fill="#93a1d1" d="M 113.5,7.5 C 113.833,7.5 114.167,7.5 114.5,7.5C 114.5,8.83333 114.5,10.1667 114.5,11.5C 117.5,11.5 120.5,11.5 123.5,11.5C 123.737,12.791 123.404,13.791 122.5,14.5C 122.672,13.5084 122.338,12.8417 121.5,12.5C 118.833,12.5 116.167,12.5 113.5,12.5C 113.5,11.1667 113.5,9.83333 113.5,8.5C 113.5,8.16667 113.5,7.83333 113.5,7.5 Z"/></g>
<g><path style="opacity:0.62" fill="#97a2cb" d="M 168.5,11.5 C 168.5,11.1667 168.5,10.8333 168.5,10.5C 170.403,10.7959 172.07,11.4625 173.5,12.5C 173.167,12.5 172.833,12.5 172.5,12.5C 171.041,12.5674 169.708,12.2341 168.5,11.5 Z"/></g>
<g><path style="opacity:1" fill="#2b368d" d="M 40.5,13.5 C 40.5,13.1667 40.5,12.8333 40.5,12.5C 43.0821,12.0254 45.0821,12.6921 46.5,14.5C 45.3478,13.375 44.3478,13.375 43.5,14.5C 42.609,13.8902 41.609,13.5569 40.5,13.5 Z"/></g>
<g><path style="opacity:1" fill="#5c6298" d="M 79.5,11.5 C 81.5529,11.4021 83.2196,12.0687 84.5,13.5C 82.8212,13.2852 81.8212,13.9519 81.5,15.5C 79.2143,15.405 77.2143,14.7384 75.5,13.5C 75.8333,13.5 76.1667,13.5 76.5,13.5C 78.1788,13.7148 79.1788,13.0481 79.5,11.5 Z"/></g>
<g><path style="opacity:1" fill="#05165e" d="M 113.5,12.5 C 116.167,12.5 118.833,12.5 121.5,12.5C 119.167,13.1667 116.833,13.8333 114.5,14.5C 114.167,14.5 113.833,14.5 113.5,14.5C 113.5,13.8333 113.5,13.1667 113.5,12.5 Z"/></g>
<g><path style="opacity:1" fill="#051861" d="M 168.5,11.5 C 169.708,12.2341 171.041,12.5674 172.5,12.5C 172.631,13.3764 172.298,14.0431 171.5,14.5C 170.264,13.7542 168.93,13.4208 167.5,13.5C 167.833,12.8333 168.167,12.1667 168.5,11.5 Z"/></g>
<g><path style="opacity:0.498" fill="#b4aad0" d="M 33.5,13.5 C 34.1667,13.5 34.8333,13.5 35.5,13.5C 35.5,14.1667 35.8333,14.5 36.5,14.5C 35.4489,15.2223 34.7822,16.2223 34.5,17.5C 34.1667,17.5 33.8333,17.5 33.5,17.5C 33.5,16.8333 33.5,16.1667 33.5,15.5C 33.5,14.8333 33.5,14.1667 33.5,13.5 Z"/></g>
<g><path style="opacity:0.616" fill="#9ea2c4" d="M 39.5,12.5 C 39.5,13.8333 39.5,15.1667 39.5,16.5C 38.7777,15.4489 37.7777,14.7822 36.5,14.5C 35.8333,14.5 35.5,14.1667 35.5,13.5C 36.7079,12.7659 38.0413,12.4326 39.5,12.5 Z"/></g>
<g><path style="opacity:1" fill="#0d1b5b" d="M 94.5,12.5 C 102.5,13.1667 102.5,13.8333 94.5,14.5C 94.5,13.8333 94.5,13.1667 94.5,12.5 Z"/></g>
<g><path style="opacity:1" fill="#6069a5" d="M 93.5,11.5 C 96.5,11.5 99.5,11.5 102.5,11.5C 102.833,11.5 103.167,11.5 103.5,11.5C 103.5,12.5 103.5,13.5 103.5,14.5C 102.833,14.5 102.5,14.8333 102.5,15.5C 99.5,15.5 96.5,15.5 93.5,15.5C 93.5,14.8333 93.8333,14.5 94.5,14.5C 102.5,13.8333 102.5,13.1667 94.5,12.5C 93.8333,12.5 93.5,12.1667 93.5,11.5 Z"/></g>
<g><path style="opacity:1" fill="#1e2960" d="M 121.5,12.5 C 122.338,12.8417 122.672,13.5084 122.5,14.5C 119.833,14.5 117.167,14.5 114.5,14.5C 116.833,13.8333 119.167,13.1667 121.5,12.5 Z"/></g>
<g><path style="opacity:1" fill="#777cb4" d="M 140.5,7.5 C 137.695,8.31948 134.695,8.81948 131.5,9C 132.833,9.66667 132.833,10.3333 131.5,11C 134.146,11.4974 136.813,11.6641 139.5,11.5C 139.5,11.8333 139.5,12.1667 139.5,12.5C 136.302,11.9644 133.635,12.631 131.5,14.5C 131.5,14.8333 131.5,15.1667 131.5,15.5C 132.833,16.5 132.833,17.5 131.5,18.5C 131.5,18.8333 131.5,19.1667 131.5,19.5C 130.527,17.0521 130.194,14.3854 130.5,11.5C 130.5,10.1667 130.5,8.83333 130.5,7.5C 133.833,7.5 137.167,7.5 140.5,7.5 Z"/></g>
<g><path style="opacity:1" fill="#121f5c" d="M 139.5,12.5 C 137.365,14.369 134.698,15.0356 131.5,14.5C 133.635,12.631 136.302,11.9644 139.5,12.5 Z"/></g>
<g><path style="opacity:1" fill="#9a2a92" d="M 12.5,12.5 C 14.099,12.2322 15.4324,12.5655 16.5,13.5C 15.209,13.2627 14.209,13.596 13.5,14.5C 12.8333,14.8333 12.1667,15.1667 11.5,15.5C 11.5569,14.391 11.8902,13.391 12.5,12.5 Z"/></g>
<g><path style="opacity:1" fill="#9b229a" d="M 13.5,14.5 C 14.209,13.596 15.209,13.2627 16.5,13.5C 17.3382,13.8417 17.6716,14.5084 17.5,15.5C 16.8333,15.5 16.1667,15.5 15.5,15.5C 14.8333,15.1667 14.1667,14.8333 13.5,14.5 Z"/></g>
<g><path style="opacity:1" fill="#965497" d="M 12.5,12.5 C 13.9187,11.5489 15.5853,11.2155 17.5,11.5C 19.2798,12.9899 19.9465,14.9899 19.5,17.5C 18.8333,18.1667 18.1667,18.8333 17.5,19.5C 17.5,18.1667 17.5,16.8333 17.5,15.5C 17.6716,14.5084 17.3382,13.8417 16.5,13.5C 15.4324,12.5655 14.099,12.2322 12.5,12.5 Z"/></g>
<g><path style="opacity:1" fill="#715591" d="M 33.5,13.5 C 32.1667,13.5 30.8333,13.5 29.5,13.5C 29.5,14.5 29.5,15.5 29.5,16.5C 30.9587,16.5674 32.2921,16.2341 33.5,15.5C 33.5,16.1667 33.5,16.8333 33.5,17.5C 31.8333,17.5 30.1667,17.5 28.5,17.5C 28.1667,17.5 27.8333,17.5 27.5,17.5C 27.3414,12.7476 29.3414,11.4143 33.5,13.5 Z"/></g>
<g><path style="opacity:0.808" fill="#8d90b1" d="M 47.5,11.5 C 50.1667,13.5 50.1667,15.5 47.5,17.5C 47.5,15.5 47.5,13.5 47.5,11.5 Z"/></g>
<g><path style="opacity:1" fill="#061a67" d="M 93.5,11.5 C 93.5,12.1667 93.8333,12.5 94.5,12.5C 94.5,13.1667 94.5,13.8333 94.5,14.5C 93.8333,14.5 93.5,14.8333 93.5,15.5C 92.6909,17.2922 92.1909,19.2922 92,21.5C 91.5012,17.5138 91.3345,13.5138 91.5,9.5C 91.3433,8.12656 91.51,6.79323 92,5.5C 92.1909,7.70779 92.6909,9.70779 93.5,11.5 Z"/></g>
<g><path style="opacity:0.969" fill="#414283" d="M 105.5,5.5 C 105.938,11.0253 105.938,16.3586 105.5,21.5C 103.656,19.7211 102.99,17.3878 103.5,14.5C 103.5,13.5 103.5,12.5 103.5,11.5C 103.025,8.91791 103.692,6.91791 105.5,5.5 Z"/></g>
<g><path style="opacity:0.188" fill="#bec7eb" d="M 113.5,14.5 C 113.833,14.5 114.167,14.5 114.5,14.5C 117.167,14.5 119.833,14.5 122.5,14.5C 120.052,15.4731 117.385,15.8064 114.5,15.5C 114.5,16.5 114.5,17.5 114.5,18.5C 117.713,18.19 120.713,18.5233 123.5,19.5C 120.5,19.5 117.5,19.5 114.5,19.5C 113.662,19.1583 113.328,18.4916 113.5,17.5C 113.5,16.5 113.5,15.5 113.5,14.5 Z"/></g>
<g><path style="opacity:0.184" fill="#c6cff1" d="M 139.5,11.5 C 140.434,12.5676 140.768,13.901 140.5,15.5C 137.5,15.5 134.5,15.5 131.5,15.5C 131.5,15.1667 131.5,14.8333 131.5,14.5C 134.698,15.0356 137.365,14.369 139.5,12.5C 139.5,12.1667 139.5,11.8333 139.5,11.5 Z"/></g>
<g><path style="opacity:1" fill="#61679b" d="M 172.5,12.5 C 172.833,12.5 173.167,12.5 173.5,12.5C 176.754,13.673 177.92,16.0063 177,19.5C 176.617,20.056 176.117,20.3893 175.5,20.5C 175.662,18.4727 175.495,16.4727 175,14.5C 173.812,15.5634 173.312,16.8967 173.5,18.5C 173.167,18.5 172.833,18.5 172.5,18.5C 172.5,17.5 172.5,16.5 172.5,15.5C 170.214,15.405 168.214,14.7384 166.5,13.5C 166.833,13.5 167.167,13.5 167.5,13.5C 168.93,13.4208 170.264,13.7542 171.5,14.5C 172.298,14.0431 172.631,13.3764 172.5,12.5 Z"/></g>
<g><path style="opacity:1" fill="#a75a9d" d="M 10.5,12.5 C 11.1667,12.5 11.8333,12.5 12.5,12.5C 11.8902,13.391 11.5569,14.391 11.5,15.5C 11.5569,16.609 11.8902,17.609 12.5,18.5C 12.5,18.8333 12.5,19.1667 12.5,19.5C 11.2502,19.4226 10.4169,18.756 10,17.5C 9.22039,15.6131 9.38705,13.9464 10.5,12.5 Z"/></g>
<g><path style="opacity:0.961" fill="#56318d" d="M 33.5,13.5 C 33.5,14.1667 33.5,14.8333 33.5,15.5C 32.2921,16.2341 30.9587,16.5674 29.5,16.5C 29.5,15.5 29.5,14.5 29.5,13.5C 30.8333,13.5 32.1667,13.5 33.5,13.5 Z"/></g>
<g><path style="opacity:1" fill="#2d3688" d="M 40.5,13.5 C 41.609,13.5569 42.609,13.8902 43.5,14.5C 43.5,15.5 43.5,16.5 43.5,17.5C 44.5,17.5 45.5,17.5 46.5,17.5C 46.5,17.8333 46.5,18.1667 46.5,18.5C 45.1667,18.5 43.8333,18.5 42.5,18.5C 41.4975,16.9891 40.8308,15.3224 40.5,13.5 Z"/></g>
<g><path style="opacity:0.945" fill="#65749d" d="M 103.5,14.5 C 102.99,17.3878 103.656,19.7211 105.5,21.5C 104.458,22.7911 103.292,22.7911 102,21.5C 101.322,19.4024 101.489,17.4024 102.5,15.5C 102.5,14.8333 102.833,14.5 103.5,14.5 Z"/></g>
<g><path style="opacity:1" fill="#061460" d="M 130.5,11.5 C 130.194,14.3854 130.527,17.0521 131.5,19.5C 133.833,20.1667 136.167,20.8333 138.5,21.5C 135.5,21.5 132.5,21.5 129.5,21.5C 129.187,17.9581 129.521,14.6248 130.5,11.5 Z"/></g>
<g><path style="opacity:1" fill="#081d5f" d="M 147.5,7.5 C 147.833,7.5 148.167,7.5 148.5,7.5C 148.198,10.0593 148.532,12.3926 149.5,14.5C 149.5,15.1667 149.5,15.8333 149.5,16.5C 149.028,18.5313 148.028,20.1979 146.5,21.5C 146.5,21.1667 146.5,20.8333 146.5,20.5C 147.485,16.3656 147.818,12.0323 147.5,7.5 Z"/></g>
<g><path style="opacity:1" fill="#0e205b" d="M 149.5,14.5 C 151.167,14.5 152.833,14.5 154.5,14.5C 154.5,15.5 154.5,16.5 154.5,17.5C 154.167,17.5 153.833,17.5 153.5,17.5C 152.432,16.5655 151.099,16.2322 149.5,16.5C 149.5,15.8333 149.5,15.1667 149.5,14.5 Z"/></g>
<g><path style="opacity:1" fill="#0c1f68" d="M 154.5,14.5 C 154.833,14.5 155.167,14.5 155.5,14.5C 156.492,14.3284 157.158,14.6618 157.5,15.5C 156.778,16.5511 155.778,17.2178 154.5,17.5C 154.5,16.5 154.5,15.5 154.5,14.5 Z"/></g>
<g><path style="opacity:1" fill="#0b2169" d="M 175.5,20.5 C 174.167,20.5 173.5,19.8333 173.5,18.5C 173.312,16.8967 173.812,15.5634 175,14.5C 175.495,16.4727 175.662,18.4727 175.5,20.5 Z"/></g>
<g><path style="opacity:1" fill="#a64e9c" d="M 15.5,15.5 C 16.1667,15.5 16.8333,15.5 17.5,15.5C 17.5,16.8333 17.5,18.1667 17.5,19.5C 16.8333,19.8333 16.1667,20.1667 15.5,20.5C 14.209,20.7373 13.209,20.404 12.5,19.5C 12.5,19.1667 12.5,18.8333 12.5,18.5C 13.5,18.5 14.5,18.5 15.5,18.5C 15.5,17.5 15.5,16.5 15.5,15.5 Z"/></g>
<g><path style="opacity:0.973" fill="#404288" d="M 41.5,10.5 C 41.1667,11.1667 40.8333,11.8333 40.5,12.5C 40.5,12.8333 40.5,13.1667 40.5,13.5C 40.8308,15.3224 41.4975,16.9891 42.5,18.5C 41.609,17.8902 40.609,17.5569 39.5,17.5C 39.5,17.1667 39.5,16.8333 39.5,16.5C 39.5,15.1667 39.5,13.8333 39.5,12.5C 39.5,11.1667 40.1667,10.5 41.5,10.5 Z"/></g>
<g><path style="opacity:0.965" fill="#2c3793" d="M 46.5,14.5 C 46.5,15.5 46.5,16.5 46.5,17.5C 45.5,17.5 44.5,17.5 43.5,17.5C 43.5,16.5 43.5,15.5 43.5,14.5C 44.3478,13.375 45.3478,13.375 46.5,14.5 Z"/></g>
<g><path style="opacity:0.251" fill="#b9b8d2" d="M 74.5,17.5 C 73.8333,17.8333 73.1667,18.1667 72.5,18.5C 72.7107,16.5759 73.3774,16.2426 74.5,17.5 Z"/></g>
<g><path style="opacity:0.004" fill="#fefffe" d="M 77.5,16.5 C 78.8333,17.1667 78.8333,17.1667 77.5,16.5 Z"/></g>
<g><path style="opacity:0.016" fill="#fefffe" d="M 115.5,16.5 C 116.833,17.1667 116.833,17.1667 115.5,16.5 Z"/></g>
<g><path style="opacity:0.011" fill="#fefffe" d="M 167.5,17.5 C 168.601,16.4017 169.934,16.235 171.5,17C 170.207,17.49 168.873,17.6567 167.5,17.5 Z"/></g>
<g><path style="opacity:1" fill="#a62396" d="M 13.5,14.5 C 14.1667,14.8333 14.8333,15.1667 15.5,15.5C 15.5,16.5 15.5,17.5 15.5,18.5C 14.5,18.5 13.5,18.5 12.5,18.5C 11.8902,17.609 11.5569,16.609 11.5,15.5C 12.1667,15.1667 12.8333,14.8333 13.5,14.5 Z"/></g>
<g><path style="opacity:0.906" fill="#8c78ab" d="M 28.5,17.5 C 30.1667,17.5 31.8333,17.5 33.5,17.5C 33.5,17.8333 33.5,18.1667 33.5,18.5C 31.4143,20.0234 29.7476,19.69 28.5,17.5 Z"/></g>
<g><path style="opacity:1" fill="#0d1c6a" d="M 84.5,13.5 C 84.6621,15.5273 84.4955,17.5273 84,19.5C 83.8784,17.563 83.045,16.2297 81.5,15.5C 81.8212,13.9519 82.8212,13.2852 84.5,13.5 Z"/></g>
<g><path style="opacity:1" fill="#061462" d="M 111.5,17.5 C 112.167,17.5 112.833,17.5 113.5,17.5C 113.328,18.4916 113.662,19.1583 114.5,19.5C 116.833,20.1667 119.167,20.8333 121.5,21.5C 118.167,21.5 114.833,21.5 111.5,21.5C 111.5,20.1667 111.5,18.8333 111.5,17.5 Z"/></g>
<g><path style="opacity:1" fill="#50568e" d="M 157.5,15.5 C 157.833,16.8333 158.167,18.1667 158.5,19.5C 158.5,20.8333 157.833,21.5 156.5,21.5C 155.026,20.5637 154.026,19.2303 153.5,17.5C 153.833,17.5 154.167,17.5 154.5,17.5C 155.778,17.2178 156.778,16.5511 157.5,15.5 Z"/></g>
<g><path style="opacity:0.886" fill="#ac78b3" d="M 21.5,15.5 C 21.5,15.8333 21.5,16.1667 21.5,16.5C 21.5,17.5 21.5,18.5 21.5,19.5C 21.5,19.8333 21.5,20.1667 21.5,20.5C 20.0937,20.0269 19.427,19.0269 19.5,17.5C 20.1667,16.8333 20.8333,16.1667 21.5,15.5 Z"/></g>
<g><path style="opacity:1" fill="#7d2d93" d="M 21.5,16.5 C 22.5,16.5 23.5,16.5 24.5,16.5C 24.5,17.5 24.5,18.5 24.5,19.5C 23.5,19.5 22.5,19.5 21.5,19.5C 21.5,18.5 21.5,17.5 21.5,16.5 Z"/></g>
<g><path style="opacity:1" fill="#675c9b" d="M 34.5,17.5 C 36.2915,17.366 37.9582,17.6993 39.5,18.5C 39.5,18.8333 39.5,19.1667 39.5,19.5C 37.8333,19.5 36.1667,19.5 34.5,19.5C 34.5,19.1667 34.5,18.8333 34.5,18.5C 34.5,18.1667 34.5,17.8333 34.5,17.5 Z"/></g>
<g><path style="opacity:0.694" fill="#838ab9" d="M 39.5,18.5 C 39.5,18.1667 39.5,17.8333 39.5,17.5C 40.609,17.5569 41.609,17.8902 42.5,18.5C 43.8333,18.5 45.1667,18.5 46.5,18.5C 44.7354,19.4614 42.7354,19.7947 40.5,19.5C 40.5,18.8333 40.1667,18.5 39.5,18.5 Z"/></g>
<g><path style="opacity:1" fill="#3f4475" d="M 74.5,17.5 C 75.4916,17.3284 76.1583,17.6618 76.5,18.5C 74.5188,19.1054 74.1854,20.1054 75.5,21.5C 74.8333,21.5 74.1667,21.5 73.5,21.5C 73.5,21.1667 73.5,20.8333 73.5,20.5C 73.1667,19.8333 72.8333,19.1667 72.5,18.5C 73.1667,18.1667 73.8333,17.8333 74.5,17.5 Z"/></g>
<g><path style="opacity:0.992" fill="#4e5589" d="M 91.5,9.5 C 91.3345,13.5138 91.5012,17.5138 92,21.5C 92.1909,19.2922 92.6909,17.2922 93.5,15.5C 93.5926,17.2474 93.926,19.0807 94.5,21C 93.1821,22.6298 91.8488,22.7965 90.5,21.5C 90.1832,17.2984 90.5166,13.2984 91.5,9.5 Z"/></g>
<g><path style="opacity:0.31" fill="#a4afd6" d="M 149.5,16.5 C 151.099,16.2322 152.432,16.5655 153.5,17.5C 152.167,17.5 150.833,17.5 149.5,17.5C 149.5,19.1667 149.5,20.8333 149.5,22.5C 147.901,22.7678 146.568,22.4345 145.5,21.5C 145.833,21.5 146.167,21.5 146.5,21.5C 148.028,20.1979 149.028,18.5313 149.5,16.5 Z"/></g>
<g><path style="opacity:1" fill="#656d9b" d="M 167.5,17.5 C 168.919,18.4511 170.585,18.7845 172.5,18.5C 172.5,19.1667 172.167,19.5 171.5,19.5C 169.219,19.0773 167.552,19.744 166.5,21.5C 162.679,20.7505 162.012,19.0838 164.5,16.5C 165.417,17.1272 166.417,17.4606 167.5,17.5 Z"/></g>
<g><path style="opacity:1" fill="#865094" d="M 21.5,16.5 C 21.5,16.1667 21.5,15.8333 21.5,15.5C 22.8333,15.5 24.1667,15.5 25.5,15.5C 26.1667,16.1667 26.8333,16.8333 27.5,17.5C 26.6248,21.1964 24.6248,22.1964 21.5,20.5C 21.5,20.1667 21.5,19.8333 21.5,19.5C 22.5,19.5 23.5,19.5 24.5,19.5C 24.5,18.5 24.5,17.5 24.5,16.5C 23.5,16.5 22.5,16.5 21.5,16.5 Z"/></g>
<g><path style="opacity:0.012" fill="#dfe2ef" d="M 72.5,18.5 C 72.8333,19.1667 73.1667,19.8333 73.5,20.5C 71.5759,20.2893 71.2426,19.6226 72.5,18.5 Z"/></g>
<g><path style="opacity:1" fill="#131e64" d="M 76.5,18.5 C 83.2208,20.3144 82.8875,21.3144 75.5,21.5C 74.1854,20.1054 74.5188,19.1054 76.5,18.5 Z"/></g>
<g><path style="opacity:1" fill="#64699f" d="M 84.5,13.5 C 87.5587,17.1032 86.892,19.9365 82.5,22C 80.1902,22.4966 77.8568,22.6633 75.5,22.5C 75.5,22.1667 75.5,21.8333 75.5,21.5C 82.8875,21.3144 83.2208,20.3144 76.5,18.5C 78.1992,18.6602 79.8659,18.4935 81.5,18C 82.5981,17.2303 82.5981,16.397 81.5,15.5C 83.045,16.2297 83.8784,17.563 84,19.5C 84.4955,17.5273 84.6621,15.5273 84.5,13.5 Z"/></g>
<g><path style="opacity:1" fill="#1e2664" d="M 114.5,19.5 C 117.5,19.5 120.5,19.5 123.5,19.5C 123.5,20.8333 122.833,21.5 121.5,21.5C 119.167,20.8333 116.833,20.1667 114.5,19.5 Z"/></g>
<g><path style="opacity:0.004" fill="#fefffe" d="M 41.5,20.5 C 42.8333,21.1667 42.8333,21.1667 41.5,20.5 Z"/></g>
<g><path style="opacity:1" fill="#0b1a67" d="M 171.5,19.5 C 170.448,21.256 168.781,21.9227 166.5,21.5C 167.552,19.744 169.219,19.0773 171.5,19.5 Z"/></g>
<g><path style="opacity:1" fill="#535791" d="M 172.5,18.5 C 172.833,18.5 173.167,18.5 173.5,18.5C 173.5,19.8333 174.167,20.5 175.5,20.5C 174.054,21.9402 172.221,22.6068 170,22.5C 168.615,22.4857 167.449,22.1524 166.5,21.5C 168.781,21.9227 170.448,21.256 171.5,19.5C 172.167,19.5 172.5,19.1667 172.5,18.5 Z"/></g>
<g><path style="opacity:0.008" fill="#fefffe" d="M 73.5,21.5 C 72.8333,22.1667 72.8333,22.1667 73.5,21.5 Z"/></g>
<g><path style="opacity:0.486" fill="#8b94bb" d="M 123.5,19.5 C 124.404,20.209 124.737,21.209 124.5,22.5C 120.167,22.5 115.833,22.5 111.5,22.5C 111.5,22.1667 111.5,21.8333 111.5,21.5C 114.833,21.5 118.167,21.5 121.5,21.5C 122.833,21.5 123.5,20.8333 123.5,19.5 Z"/></g>
<g><path style="opacity:0.482" fill="#adb6d8" d="M 128.5,4.5 C 128.5,4.83333 128.5,5.16667 128.5,5.5C 128.179,11.0262 128.512,16.3595 129.5,21.5C 132.5,21.5 135.5,21.5 138.5,21.5C 139.376,21.6309 140.043,21.2975 140.5,20.5C 137.572,19.5159 134.572,19.1826 131.5,19.5C 131.5,19.1667 131.5,18.8333 131.5,18.5C 134.833,18.5 138.167,18.5 141.5,18.5C 141.5,19.8333 141.5,21.1667 141.5,22.5C 136.833,22.5 132.167,22.5 127.5,22.5C 127.177,16.31 127.51,10.31 128.5,4.5 Z"/></g>
<g><path style="opacity:1" fill="#172663" d="M 131.5,19.5 C 134.572,19.1826 137.572,19.5159 140.5,20.5C 140.043,21.2975 139.376,21.6309 138.5,21.5C 136.167,20.8333 133.833,20.1667 131.5,19.5 Z"/></g>
<g><path style="opacity:0.518" fill="#9194b9" d="M 158.5,19.5 C 159.478,19.811 160.145,20.4777 160.5,21.5C 159.042,22.782 157.708,22.782 156.5,21.5C 157.833,21.5 158.5,20.8333 158.5,19.5 Z"/></g>
<g><path style="opacity:0.427" fill="#c2a1c3" d="M 17.5,19.5 C 17.8039,20.1499 18.1373,20.8165 18.5,21.5C 20.9749,21.9642 22.9749,22.9642 24.5,24.5C 22.9582,23.6993 21.2915,23.366 19.5,23.5C 19.1667,23.5 18.8333,23.5 18.5,23.5C 17.1667,22.8333 16.1667,21.8333 15.5,20.5C 16.1667,20.1667 16.8333,19.8333 17.5,19.5 Z"/></g>
<g><path style="opacity:0.408" fill="#9490ba" d="M 44.5,21.5 C 45.8333,21.5 47.1667,21.5 48.5,21.5C 48.7778,23.3464 48.1112,24.6798 46.5,25.5C 44.8888,24.6798 44.2222,23.3464 44.5,21.5 Z"/></g>
<g><path style="opacity:0.008" fill="#fefffe" d="M 75.5,22.5 C 74.8333,23.1667 74.8333,23.1667 75.5,22.5 Z"/></g>
<g><path style="opacity:0.804" fill="#bc85b6" d="M 10.5,21.5 C 12.3464,21.2222 13.6798,21.8888 14.5,23.5C 13.6798,25.1112 12.3464,25.7778 10.5,25.5C 10.5,24.1667 10.5,22.8333 10.5,21.5 Z"/></g>
<g><path style="opacity:1" fill="#8a468f" d="M 19.5,23.5 C 21.2915,23.366 22.9582,23.6993 24.5,24.5C 25.404,25.209 25.7373,26.209 25.5,27.5C 25.1667,27.5 24.8333,27.5 24.5,27.5C 24.1667,27.5 23.8333,27.5 23.5,27.5C 22.2458,23.69 21.2458,23.69 20.5,27.5C 20.1667,27.5 19.8333,27.5 19.5,27.5C 19.5,26.1667 19.5,24.8333 19.5,23.5 Z"/></g>
<g><path style="opacity:0.404" fill="#aeadcc" d="M 33.5,18.5 C 33.8333,18.5 34.1667,18.5 34.5,18.5C 34.5,18.8333 34.5,19.1667 34.5,19.5C 34.3838,22.9103 36.0504,24.2436 39.5,23.5C 39.5,22.1667 39.5,20.8333 39.5,19.5C 39.8333,19.5 40.1667,19.5 40.5,19.5C 40.6265,23.6204 42.6265,26.287 46.5,27.5C 46.1667,27.5 45.8333,27.5 45.5,27.5C 44.5,27.5 43.5,27.5 42.5,27.5C 42.1667,27.5 41.8333,27.5 41.5,27.5C 41.0472,26.5416 40.3805,25.7083 39.5,25C 34.5331,25.534 32.5331,23.3673 33.5,18.5 Z"/></g>
<g><path style="opacity:0.953" fill="#403383" d="M 34.5,19.5 C 36.1667,19.5 37.8333,19.5 39.5,19.5C 39.5,20.8333 39.5,22.1667 39.5,23.5C 36.0504,24.2436 34.3838,22.9103 34.5,19.5 Z"/></g>
<g><path style="opacity:0.714" fill="#cc9dcd" d="M 18.5,23.5 C 18.8333,23.5 19.1667,23.5 19.5,23.5C 19.5,24.8333 19.5,26.1667 19.5,27.5C 19.5,27.8333 19.5,28.1667 19.5,28.5C 19.5,28.8333 19.5,29.1667 19.5,29.5C 18.8333,29.1667 18.1667,28.8333 17.5,28.5C 17.5,28.1667 17.5,27.8333 17.5,27.5C 18.4345,26.4324 18.7678,25.099 18.5,23.5 Z"/></g>
<g><path style="opacity:1" fill="#892894" d="M 23.5,27.5 C 22.5,27.5 21.5,27.5 20.5,27.5C 21.2458,23.69 22.2458,23.69 23.5,27.5 Z"/></g>
<g><path style="opacity:0.992" fill="#a971aa" d="M 19.5,28.5 C 19.5,28.1667 19.5,27.8333 19.5,27.5C 19.8333,27.5 20.1667,27.5 20.5,27.5C 21.5,27.5 22.5,27.5 23.5,27.5C 23.8333,27.5 24.1667,27.5 24.5,27.5C 24.5,27.8333 24.5,28.1667 24.5,28.5C 22.8333,29.8333 21.1667,29.8333 19.5,28.5 Z"/></g>
<g><path style="opacity:0.953" fill="#625596" d="M 36.5,26.5 C 36.8333,26.5 37.1667,26.5 37.5,26.5C 38.4345,27.5676 38.7678,28.901 38.5,30.5C 37.8333,30.8333 37.1667,31.1667 36.5,31.5C 36.1667,31.5 35.8333,31.5 35.5,31.5C 35.366,29.7085 35.6993,28.0418 36.5,26.5 Z"/></g>
<g><path style="opacity:1" fill="#b051a0" d="M 17.5,27.5 C 17.5,27.8333 17.5,28.1667 17.5,28.5C 17.5,29.1667 17.5,29.8333 17.5,30.5C 16.8333,30.5 16.1667,30.5 15.5,30.5C 14.1667,30.5 12.8333,30.5 11.5,30.5C 11.5,29.8333 11.5,29.1667 11.5,28.5C 13.0993,26.2712 15.0993,25.9378 17.5,27.5 Z"/></g>
<g><path style="opacity:0.133" fill="#e2cdf2" d="M 32.5,26.5 C 32.5,27.8333 32.5,29.1667 32.5,30.5C 31.8333,31.1667 31.1667,31.8333 30.5,32.5C 30.5,31.5 30.5,30.5 30.5,29.5C 31.1667,28.5 31.8333,27.5 32.5,26.5 Z"/></g>
<g><path style="opacity:0.953" fill="#675491" d="M 37.5,26.5 C 37.1667,26.5 36.8333,26.5 36.5,26.5C 35.5,26.5 34.5,26.5 33.5,26.5C 33.366,28.2915 33.6993,29.9582 34.5,31.5C 34.1667,31.5 33.8333,31.5 33.5,31.5C 32.8333,31.5 32.5,31.1667 32.5,30.5C 32.5,29.1667 32.5,27.8333 32.5,26.5C 34.1667,25.1667 35.8333,25.1667 37.5,26.5 Z"/></g>
<g><path style="opacity:0.957" fill="#463187" d="M 36.5,26.5 C 35.6993,28.0418 35.366,29.7085 35.5,31.5C 35.1667,31.5 34.8333,31.5 34.5,31.5C 33.6993,29.9582 33.366,28.2915 33.5,26.5C 34.5,26.5 35.5,26.5 36.5,26.5 Z"/></g>
<g><path style="opacity:1" fill="#30397f" d="M 45.5,27.5 C 45.8333,27.5 46.1667,27.5 46.5,27.5C 46.8333,27.5 47.1667,27.5 47.5,27.5C 47.8016,30.0593 47.4682,32.3926 46.5,34.5C 46.5,34.1667 46.5,33.8333 46.5,33.5C 46.4828,31.4352 46.1495,29.4352 45.5,27.5 Z"/></g>
<g><path style="opacity:1" fill="#a12792" d="M 11.5,30.5 C 12.8333,30.5 14.1667,30.5 15.5,30.5C 15.0825,31.2216 14.4158,31.7216 13.5,32C 14.2524,32.6708 14.5858,33.5041 14.5,34.5C 13.8333,34.5 13.1667,34.5 12.5,34.5C 11.7659,33.2921 11.4326,31.9587 11.5,30.5 Z"/></g>
<g><path style="opacity:0.953" fill="#774797" d="M 25.5,27.5 C 27.099,27.2322 28.4324,27.5655 29.5,28.5C 29.5,29.8333 29.5,31.1667 29.5,32.5C 28.1667,32.5 26.8333,32.5 25.5,32.5C 24.6618,32.1583 24.3284,31.4916 24.5,30.5C 24.5,29.8333 24.5,29.1667 24.5,28.5C 25.1667,28.5 25.5,28.1667 25.5,27.5 Z"/></g>
<g><path style="opacity:1" fill="#7d7db2" d="M 40.5,28.5 C 40.5,30.5 40.5,32.5 40.5,34.5C 38.8958,33.713 38.2291,32.3797 38.5,30.5C 39.1667,29.8333 39.8333,29.1667 40.5,28.5 Z"/></g>
<g><path style="opacity:1" fill="#2a368e" d="M 42.5,27.5 C 43.5,27.5 44.5,27.5 45.5,27.5C 46.1495,29.4352 46.4828,31.4352 46.5,33.5C 44.6776,33.1692 43.0109,32.5025 41.5,31.5C 41.4326,30.0413 41.7659,28.7079 42.5,27.5 Z"/></g>
<g><path style="opacity:1" fill="#8a8aad" d="M 47.5,27.5 C 50.3766,30.6404 50.0433,33.307 46.5,35.5C 46.5,35.1667 46.5,34.8333 46.5,34.5C 47.4682,32.3926 47.8016,30.0593 47.5,27.5 Z"/></g>
<g><path style="opacity:1" fill="#b572ac" d="M 11.5,28.5 C 11.5,29.1667 11.5,29.8333 11.5,30.5C 11.4326,31.9587 11.7659,33.2921 12.5,34.5C 11.8333,34.5 11.5,34.8333 11.5,35.5C 10.0532,34.8658 9.38655,33.6991 9.5,32C 9.38655,30.3009 10.0532,29.1342 11.5,28.5 Z"/></g>
<g><path style="opacity:1" fill="#9e2497" d="M 15.5,30.5 C 16.1667,30.5 16.8333,30.5 17.5,30.5C 17.5,31.8333 17.5,33.1667 17.5,34.5C 16.5,34.5 15.5,34.5 14.5,34.5C 14.5858,33.5041 14.2524,32.6708 13.5,32C 14.4158,31.7216 15.0825,31.2216 15.5,30.5 Z"/></g>
<g><path style="opacity:1" fill="#4b4a90" d="M 41.5,27.5 C 41.8333,27.5 42.1667,27.5 42.5,27.5C 41.7659,28.7079 41.4326,30.0413 41.5,31.5C 41.5,32.5 41.5,33.5 41.5,34.5C 43.1667,34.5 44.8333,34.5 46.5,34.5C 46.5,34.8333 46.5,35.1667 46.5,35.5C 45.9032,36.1386 45.0698,36.472 44,36.5C 42.3009,36.6134 41.1342,35.9468 40.5,34.5C 40.5,32.5 40.5,30.5 40.5,28.5C 40.5,27.8333 40.8333,27.5 41.5,27.5 Z"/></g>
<g><path style="opacity:0.996" fill="#a667a5" d="M 17.5,28.5 C 18.1667,28.8333 18.8333,29.1667 19.5,29.5C 19.5,29.8333 19.5,30.1667 19.5,30.5C 19.5,31.8333 19.5,33.1667 19.5,34.5C 19.5,35.1667 19.1667,35.5 18.5,35.5C 18.7845,33.5853 18.4511,31.9187 17.5,30.5C 17.5,29.8333 17.5,29.1667 17.5,28.5 Z"/></g>
<g><path style="opacity:0.655" fill="#d4bad8" d="M 19.5,30.5 C 21.1667,31.8333 22.8333,31.8333 24.5,30.5C 24.3284,31.4916 24.6618,32.1583 25.5,32.5C 25.5,32.8333 25.5,33.1667 25.5,33.5C 23.4352,33.5172 21.4352,33.8505 19.5,34.5C 19.5,33.1667 19.5,31.8333 19.5,30.5 Z"/></g>
<g><path style="opacity:1" fill="#7b5893" d="M 29.5,28.5 C 30.1667,28.5 30.5,28.8333 30.5,29.5C 30.5,30.5 30.5,31.5 30.5,32.5C 29.1214,34.5969 27.4547,34.9302 25.5,33.5C 25.5,33.1667 25.5,32.8333 25.5,32.5C 26.8333,32.5 28.1667,32.5 29.5,32.5C 29.5,31.1667 29.5,29.8333 29.5,28.5 Z"/></g>
<g><path style="opacity:0.31" fill="#d4bad2" d="M 85.5,32.5 C 87.288,32.2148 88.9547,32.5481 90.5,33.5C 90.0431,34.2975 89.3764,34.6309 88.5,34.5C 87.8333,33.1667 87.1667,33.1667 86.5,34.5C 85.6618,34.1583 85.3284,33.4916 85.5,32.5 Z"/></g>
<g><path style="opacity:0.596" fill="#d1b8cf" d="M 143.5,33.5 C 145.128,32.1472 146.462,32.4805 147.5,34.5C 146.833,34.5 146.5,34.8333 146.5,35.5C 145.833,35.1667 145.167,34.8333 144.5,34.5C 144.5,33.8333 144.167,33.5 143.5,33.5 Z"/></g>
<g><path style="opacity:0.541" fill="#d9bcd7" d="M 152.5,33.5 C 155.33,31.9652 156.663,32.9652 156.5,36.5C 155.508,36.3284 154.842,36.6618 154.5,37.5C 154.167,37.5 153.833,37.5 153.5,37.5C 154.116,36.2022 154.116,35.2022 153.5,34.5C 153.5,33.8333 153.167,33.5 152.5,33.5 Z"/></g>
<g><path style="opacity:1" fill="#32389a" d="M 41.5,31.5 C 43.0109,32.5025 44.6776,33.1692 46.5,33.5C 46.5,33.8333 46.5,34.1667 46.5,34.5C 44.8333,34.5 43.1667,34.5 41.5,34.5C 41.5,33.5 41.5,32.5 41.5,31.5 Z"/></g>
<g><path style="opacity:0.013" fill="#fcf9fb" d="M 85.5,32.5 C 85.3284,33.4916 85.6618,34.1583 86.5,34.5C 86.5,35.1667 86.5,35.8333 86.5,36.5C 83.1155,35.756 82.7822,34.4226 85.5,32.5 Z"/></g>
<g><path style="opacity:1" fill="#862f83" d="M 17.5,30.5 C 18.4511,31.9187 18.7845,33.5853 18.5,35.5C 16.1667,35.5 13.8333,35.5 11.5,35.5C 11.5,34.8333 11.8333,34.5 12.5,34.5C 13.1667,34.5 13.8333,34.5 14.5,34.5C 15.5,34.5 16.5,34.5 17.5,34.5C 17.5,33.1667 17.5,31.8333 17.5,30.5 Z"/></g>
<g><path style="opacity:0.624" fill="#b8b3ca" d="M 33.5,31.5 C 33.8333,31.5 34.1667,31.5 34.5,31.5C 34.8333,31.5 35.1667,31.5 35.5,31.5C 35.8333,31.5 36.1667,31.5 36.5,31.5C 35.7368,33.3684 34.7368,35.0351 33.5,36.5C 33.5,35.8333 33.1667,35.5 32.5,35.5C 32.8333,34.1667 33.1667,32.8333 33.5,31.5 Z"/></g>
<g><path style="opacity:0.592" fill="#c9aac4" d="M 102.5,38.5 C 101.833,38.5 101.5,38.8333 101.5,39.5C 100.378,37.7116 100.211,35.7116 101,33.5C 103.2,32.0099 105.034,32.3432 106.5,34.5C 105.609,35.5896 104.609,35.5896 103.5,34.5C 102.571,35.6888 102.238,37.0222 102.5,38.5 Z"/></g>
<g><path style="opacity:0.627" fill="#d2a8cb" d="M 123.5,33.5 C 122.659,34.9264 121.659,36.2597 120.5,37.5C 119.833,37.5 119.5,37.8333 119.5,38.5C 118.167,36.8333 118.167,35.1667 119.5,33.5C 120.222,33.9175 120.722,34.5842 121,35.5C 121.249,34.376 121.749,33.376 122.5,32.5C 123.107,32.6236 123.44,32.9569 123.5,33.5 Z"/></g>
<g><path style="opacity:0.647" fill="#c1a3bc" d="M 130.5,33.5 C 129.833,33.5 129.5,33.8333 129.5,34.5C 128.833,34.5 128.5,34.8333 128.5,35.5C 127.833,36.1667 127.167,36.8333 126.5,37.5C 125.839,33.4828 127.172,32.1495 130.5,33.5 Z"/></g>
<g><path style="opacity:1" fill="#b581b1" d="M 11.5,35.5 C 13.8333,35.5 16.1667,35.5 18.5,35.5C 16.0837,38.0341 13.7504,38.0341 11.5,35.5 Z"/></g>
<g><path style="opacity:0.882" fill="#866fa9" d="M 26.5,36.5 C 28.2646,35.5386 30.2646,35.2053 32.5,35.5C 33.1667,35.5 33.5,35.8333 33.5,36.5C 33.5,36.8333 33.5,37.1667 33.5,37.5C 33.1667,37.5 32.8333,37.5 32.5,37.5C 30.7354,36.5386 28.7354,36.2053 26.5,36.5 Z"/></g>
<g><path style="opacity:0.824" fill="#a785a4" d="M 86.5,34.5 C 87.1667,33.1667 87.8333,33.1667 88.5,34.5C 88.5,36.1667 88.5,37.8333 88.5,39.5C 87.8333,37.8333 87.1667,36.1667 86.5,34.5 Z"/></g>
<g><path style="opacity:0.973" fill="#c09cba" d="M 110.5,37.5 C 109.167,36.1667 109.167,34.8333 110.5,33.5C 110.369,34.3764 110.702,35.0431 111.5,35.5C 113.31,31.5172 114.31,31.8506 114.5,36.5C 114.333,37.8333 114.167,39.1667 114,40.5C 113.241,38.9371 112.074,37.9371 110.5,37.5 Z"/></g>
<g><path style="opacity:0.98" fill="#c7acc2" d="M 135.5,32.5 C 136.843,34.698 138.176,37.0313 139.5,39.5C 137.994,40.7472 136.494,40.7472 135,39.5C 134.297,37.0709 134.463,34.7375 135.5,32.5 Z"/></g>
<g><path style="opacity:0.824" fill="#ba98b4" d="M 152.5,33.5 C 153.167,33.5 153.5,33.8333 153.5,34.5C 152.596,35.209 152.263,36.209 152.5,37.5C 152.5,38.1667 152.167,38.5 151.5,38.5C 150.07,36.5453 150.403,34.8786 152.5,33.5 Z"/></g>
<g><path style="opacity:0.51" fill="#c5abc3" d="M 158.5,33.5 C 159.793,32.3552 160.959,32.6885 162,34.5C 162.667,33.8333 163.333,33.1667 164,32.5C 163.981,35.2441 163.314,37.9107 162,40.5C 160.979,38.0297 159.812,35.6964 158.5,33.5 Z"/></g>
<g><path style="opacity:0.882" fill="#c7a4c3" d="M 93.5,33.5 C 94.4345,34.5676 94.7678,35.901 94.5,37.5C 95.6085,38.29 96.9419,38.79 98.5,39C 96.7979,40.7184 94.9645,40.885 93,39.5C 92.2109,37.2884 92.3775,35.2884 93.5,33.5 Z"/></g>
<g><path style="opacity:0.255" fill="#dcbcda" d="M 93.5,33.5 C 95.0348,32.2121 96.7015,32.2121 98.5,33.5C 97.624,34.2508 96.624,34.7508 95.5,35C 98.0515,36.5158 97.7181,37.3491 94.5,37.5C 94.7678,35.901 94.4345,34.5676 93.5,33.5 Z"/></g>
<g><path style="opacity:0.269" fill="#dac4d5" d="M 110.5,33.5 C 109.167,34.8333 109.167,36.1667 110.5,37.5C 110.649,38.552 110.483,39.552 110,40.5C 108.287,37.9845 108.12,35.3179 109.5,32.5C 110.107,32.6236 110.44,32.9569 110.5,33.5 Z"/></g>
<g><path style="opacity:0.718" fill="#c6a8c4" d="M 129.5,34.5 C 129.5,33.8333 129.833,33.5 130.5,33.5C 133.363,36.3974 132.863,38.7308 129,40.5C 127.251,40.2517 126.418,39.2517 126.5,37.5C 127.167,36.8333 127.833,36.1667 128.5,35.5C 128.281,36.675 128.614,37.675 129.5,38.5C 130.782,37.0416 130.782,35.7082 129.5,34.5 Z"/></g>
<g><path style="opacity:1" fill="#b7a2c3" d="M 22.5,38.5 C 20.8212,38.2852 19.8212,38.9519 19.5,40.5C 18.2897,38.8236 18.7897,37.4903 21,36.5C 21.7172,37.0442 22.2172,37.7109 22.5,38.5 Z"/></g>
<g><path style="opacity:1" fill="#4e3288" d="M 26.5,36.5 C 28.7354,36.2053 30.7354,36.5386 32.5,37.5C 30.5,37.8333 28.5,38.1667 26.5,38.5C 26.5,37.8333 26.5,37.1667 26.5,36.5 Z"/></g>
<g><path style="opacity:1" fill="#948cb7" d="M 37.5,36.5 C 40.148,38.1276 40.148,39.7943 37.5,41.5C 34.8387,39.8277 34.8387,38.1611 37.5,36.5 Z"/></g>
<g><path style="opacity:0.663" fill="#c397bd" d="M 123.5,33.5 C 123.808,35.924 123.474,38.2573 122.5,40.5C 121.575,39.6431 120.908,38.6431 120.5,37.5C 121.659,36.2597 122.659,34.9264 123.5,33.5 Z"/></g>
<g><path style="opacity:0.451" fill="#b099c2" d="M 26.5,36.5 C 26.5,37.1667 26.5,37.8333 26.5,38.5C 25.5655,39.5676 25.2322,40.901 25.5,42.5C 24.8614,41.9032 24.528,41.0698 24.5,40C 24.3866,38.3009 25.0532,37.1342 26.5,36.5 Z"/></g>
<g><path style="opacity:0.208" fill="#e5d3e7" d="M 86.5,34.5 C 87.1667,36.1667 87.8333,37.8333 88.5,39.5C 88.44,40.0431 88.1067,40.3764 87.5,40.5C 86.5713,39.3112 86.238,37.9778 86.5,36.5C 86.5,35.8333 86.5,35.1667 86.5,34.5 Z"/></g>
<g><path style="opacity:0.667" fill="#c5a9bf" d="M 101.5,39.5 C 101.5,38.8333 101.833,38.5 102.5,38.5C 107.647,37.2136 107.814,37.8803 103,40.5C 102.235,40.4301 101.735,40.0967 101.5,39.5 Z"/></g>
<g><path style="opacity:0.643" fill="#ddb7d7" d="M 119.5,33.5 C 118.167,35.1667 118.167,36.8333 119.5,38.5C 119.631,39.3764 119.298,40.0431 118.5,40.5C 117.167,37.8333 117.167,35.1667 118.5,32.5C 119.107,32.6236 119.44,32.9569 119.5,33.5 Z"/></g>
<g><path style="opacity:0.663" fill="#caabc5" d="M 143.5,33.5 C 144.167,33.5 144.5,33.8333 144.5,34.5C 144.354,39.1366 145.021,39.4699 146.5,35.5C 146.5,34.8333 146.833,34.5 147.5,34.5C 149.111,37.3316 148.278,39.3316 145,40.5C 143.133,39.6233 141.966,38.1233 141.5,36C 142.066,35.0053 142.733,34.172 143.5,33.5 Z M 144.5,34.5 C 145.167,34.8333 145.833,35.1667 146.5,35.5C 145.021,39.4699 144.354,39.1366 144.5,34.5 Z"/></g>
<g><path style="opacity:0.792" fill="#c8a9c4" d="M 156.5,36.5 C 156.824,39.6802 155.49,40.8469 152.5,40C 151.944,39.6174 151.611,39.1174 151.5,38.5C 152.167,38.5 152.5,38.1667 152.5,37.5C 152.833,37.5 153.167,37.5 153.5,37.5C 153.833,38.8333 154.167,38.8333 154.5,37.5C 154.842,36.6618 155.508,36.3284 156.5,36.5 Z"/></g>
<g><path style="opacity:1" fill="#8d6c99" d="M 22.5,38.5 C 22.3318,41.0514 21.3318,41.7181 19.5,40.5C 19.8212,38.9519 20.8212,38.2852 22.5,38.5 Z"/></g>
<g><path style="opacity:1" fill="#59438c" d="M 33.5,37.5 C 34.8333,39.5 34.8333,41.5 33.5,43.5C 30.8333,43.5 28.1667,43.5 25.5,43.5C 25.5,43.1667 25.5,42.8333 25.5,42.5C 25.2322,40.901 25.5655,39.5676 26.5,38.5C 26.5,39.8333 26.5,41.1667 26.5,42.5C 27.8734,42.6567 29.2068,42.49 30.5,42C 30.0426,41.586 29.7093,41.086 29.5,40.5C 31.3316,39.9432 32.6649,38.9432 33.5,37.5 Z"/></g>
<g><path style="opacity:1" fill="#4f2f95" d="M 32.5,37.5 C 32.8333,37.5 33.1667,37.5 33.5,37.5C 32.6649,38.9432 31.3316,39.9432 29.5,40.5C 29.7093,41.086 30.0426,41.586 30.5,42C 29.2068,42.49 27.8734,42.6567 26.5,42.5C 26.5,41.1667 26.5,39.8333 26.5,38.5C 28.5,38.1667 30.5,37.8333 32.5,37.5 Z"/></g>
<g><path style="opacity:1" fill="#847aae" d="M 25.5,43.5 C 28.1667,43.5 30.8333,43.5 33.5,43.5C 30.8333,46.1667 28.1667,46.1667 25.5,43.5 Z"/></g>
</svg>
